<svg width="137" height="49" viewBox="0 0 137 49" fill="none" xmlns="http://www.w3.org/2000/svg">
<g filter="url(#filter0_d_3486_2529)">
<rect x="8.3457" y="7" width="120" height="33" rx="16.5" fill="url(#paint0_linear_3486_2529)" shape-rendering="crispEdges"/>
<g clip-path="url(#clip0_3486_2529)">
<path d="M24.8457 13.5C30.3686 13.5 34.8457 17.9772 34.8457 23.5C34.8457 29.0228 30.3686 33.5 24.8457 33.5C19.3229 33.5 14.8457 29.0228 14.8457 23.5C14.8457 17.9772 19.3229 13.5 24.8457 13.5Z" fill="#00D594" stroke="white"/>
<path d="M27.0957 21.3408C27.0543 21.3191 27.0248 21.2883 27.0048 21.2499L24.8457 16.2812L22.6865 21.25C22.6666 21.2883 22.6369 21.3191 22.5956 21.3409L17.627 23.5L22.5957 25.6592C22.6349 25.6757 22.6658 25.7051 22.6866 25.7502L24.8457 30.7188L27.0049 25.75C27.0258 25.7051 27.0567 25.6757 27.0959 25.6591L32.0645 23.5L27.0957 21.3408ZM24.8457 24.9826C24.027 24.9826 23.3631 24.3187 23.3631 23.5C23.3631 22.6813 24.0268 22.0174 24.8457 22.0174C25.6646 22.0174 26.3283 22.6813 26.3283 23.5C26.3283 24.3187 25.6644 24.9826 24.8457 24.9826Z" fill="white"/>
</g>
<path d="M43.2513 28.5V18.495H45.0663C46.2963 18.495 47.0013 18.69 47.5863 19.2C48.1713 19.695 48.5163 20.475 48.5163 21.315C48.5163 22.095 48.2013 22.86 47.6913 23.355C47.1513 23.865 46.3563 24.12 45.3513 24.12H44.3763V28.5H43.2513ZM44.3763 23.1H45.2763C46.6413 23.1 47.4213 22.44 47.4213 21.3C47.4213 20.76 47.2113 20.28 46.8663 19.98C46.4913 19.665 46.0113 19.53 45.2013 19.53H44.3763V23.1ZM49.8218 28.5V17.565H50.8868V28.5H49.8218ZM57.8622 22.275V26.025C57.8622 26.94 57.7122 27.45 57.2922 27.9C56.8422 28.395 56.1672 28.68 55.3872 28.68C54.6222 28.68 53.9472 28.395 53.4972 27.9C53.0772 27.45 52.9272 26.94 52.9272 26.025V22.275H53.9922V25.905C53.9922 26.49 54.0522 26.805 54.1872 27.06C54.3972 27.45 54.8622 27.705 55.3872 27.705C55.9272 27.705 56.3922 27.465 56.6022 27.06C56.7372 26.805 56.7972 26.49 56.7972 25.905V22.275H57.8622ZM59.8999 28.5V22.275H60.9649V22.95C61.3999 22.365 61.8499 22.125 62.5099 22.125C63.2599 22.125 63.8599 22.485 64.2199 23.13C64.5949 22.47 65.2249 22.125 66.0349 22.125C66.7549 22.125 67.3849 22.44 67.7149 22.965C67.9549 23.355 68.0599 23.805 68.0599 24.555V28.5H66.9949V24.72C66.9949 23.58 66.6649 23.1 65.8699 23.1C64.9699 23.1 64.5349 23.745 64.5349 25.05V28.5H63.4699V24.81C63.4699 23.67 63.0799 23.1 62.3149 23.1C61.8499 23.1 61.3999 23.37 61.1899 23.775C61.0399 24.075 60.9649 24.51 60.9649 25.11V28.5H59.8999ZM74.7152 26.4L75.6152 26.91C74.9252 28.125 74.0102 28.68 72.7502 28.68C70.9502 28.68 69.6902 27.345 69.6902 25.425C69.6902 23.49 70.9202 22.14 72.7052 22.14C74.4902 22.14 75.6752 23.445 75.6752 25.425V25.605H70.8152C70.8752 26.88 71.6702 27.705 72.7952 27.705C73.6202 27.705 74.1152 27.36 74.7152 26.4ZM70.8902 24.705H74.5502C74.3552 23.73 73.6352 23.1 72.7202 23.1C71.8202 23.1 71.0552 23.775 70.8902 24.705ZM81.3519 28.5V18.495H83.1669C84.2169 18.495 84.9069 18.69 85.4319 19.125C86.0169 19.59 86.3619 20.385 86.3619 21.21C86.3619 22.065 86.0619 22.65 85.3719 23.145C86.5569 23.49 87.2619 24.435 87.2619 25.68C87.2619 26.535 86.9019 27.3 86.2569 27.825C85.6419 28.32 84.9819 28.5 83.8419 28.5H81.3519ZM82.4769 22.905H83.3169C84.0519 22.905 84.3969 22.815 84.7269 22.515C85.0719 22.215 85.2669 21.75 85.2669 21.225C85.2669 20.685 85.0719 20.205 84.7419 19.905C84.4269 19.635 84.0369 19.53 83.3469 19.53H82.4769V22.905ZM82.4769 27.465H83.7519C84.6669 27.465 85.0869 27.36 85.5069 27.03C85.9119 26.7 86.1519 26.19 86.1519 25.65C86.1519 25.035 85.8219 24.45 85.3119 24.165C84.9219 23.955 84.4119 23.85 83.6019 23.85H82.4769V27.465ZM88.7332 25.35C88.7332 23.595 90.2182 22.14 92.0332 22.14C93.8782 22.14 95.3182 23.58 95.3182 25.41C95.3182 27.255 93.8782 28.68 92.0032 28.68C90.1582 28.68 88.7332 27.225 88.7332 25.35ZM89.8282 25.38C89.8282 26.73 90.7282 27.705 92.0032 27.705C93.2932 27.705 94.2232 26.745 94.2232 25.41C94.2232 24.075 93.2932 23.115 92.0182 23.115C90.7732 23.115 89.8282 24.09 89.8282 25.38ZM96.5554 25.35C96.5554 23.595 98.0404 22.14 99.8554 22.14C101.7 22.14 103.14 23.58 103.14 25.41C103.14 27.255 101.7 28.68 99.8254 28.68C97.9804 28.68 96.5554 27.225 96.5554 25.35ZM97.6504 25.38C97.6504 26.73 98.5504 27.705 99.8254 27.705C101.115 27.705 102.045 26.745 102.045 25.41C102.045 24.075 101.115 23.115 99.8404 23.115C98.5954 23.115 97.6504 24.09 97.6504 25.38ZM104.141 27.09L105.086 26.7C105.431 27.45 105.761 27.705 106.331 27.705C106.916 27.705 107.351 27.285 107.351 26.715C107.351 26.25 107.126 26.025 106.346 25.695C104.906 25.08 104.546 24.705 104.546 23.88C104.546 22.89 105.326 22.14 106.361 22.14C107.126 22.14 107.681 22.5 108.071 23.265L107.186 23.73C106.961 23.31 106.691 23.115 106.316 23.115C105.911 23.115 105.566 23.43 105.566 23.805C105.566 24.165 105.776 24.36 106.571 24.69C107.276 24.99 107.471 25.08 107.756 25.29C108.206 25.62 108.446 26.085 108.446 26.655C108.446 27.795 107.516 28.68 106.316 28.68C105.281 28.68 104.546 28.14 104.141 27.09ZM109.968 28.5V23.265H109.323V22.275H109.968V20.025H111.033V22.275H112.143V23.265H111.033V28.5H109.968ZM113.701 26.475V18.495H114.796V26.475H113.701ZM113.506 27.9C113.506 27.495 113.851 27.165 114.256 27.165C114.661 27.165 114.991 27.495 114.991 27.9C114.991 28.32 114.661 28.65 114.241 28.65C113.836 28.65 113.506 28.305 113.506 27.9Z" fill="white"/>
</g>
<defs>
<filter id="filter0_d_3486_2529" x="0.345703" y="0" width="136" height="49" filterUnits="userSpaceOnUse" color-interpolation-filters="sRGB">
<feFlood flood-opacity="0" result="BackgroundImageFix"/>
<feColorMatrix in="SourceAlpha" type="matrix" values="0 0 0 0 0 0 0 0 0 0 0 0 0 0 0 0 0 0 127 0" result="hardAlpha"/>
<feOffset dy="1"/>
<feGaussianBlur stdDeviation="4"/>
<feComposite in2="hardAlpha" operator="out"/>
<feColorMatrix type="matrix" values="0 0 0 0 0 0 0 0 0 0 0 0 0 0 0 0 0 0 0.15 0"/>
<feBlend mode="normal" in2="BackgroundImageFix" result="effect1_dropShadow_3486_2529"/>
<feBlend mode="normal" in="SourceGraphic" in2="effect1_dropShadow_3486_2529" result="shape"/>
</filter>
<linearGradient id="paint0_linear_3486_2529" x1="8.3457" y1="10.5" x2="128.828" y2="32.9097" gradientUnits="userSpaceOnUse">
<stop stop-color="#26C393"/>
<stop offset="0.250666" stop-color="#00D594"/>
<stop offset="1" stop-color="#26C393"/>
</linearGradient>
<clipPath id="clip0_3486_2529">
<rect width="21" height="21" fill="white" transform="translate(14.3457 13)"/>
</clipPath>
</defs>
</svg>
