<svg width="66" height="67" viewBox="0 0 66 67" fill="none" xmlns="http://www.w3.org/2000/svg">
<path d="M65 33.5C65 51.1731 50.6731 65.5 33 65.5C15.3269 65.5 1 51.1731 1 33.5C1 15.8269 15.3269 1.5 33 1.5C50.6731 1.5 65 15.8269 65 33.5Z" fill="url(#paint0_linear_1686_7148)"/>
<path d="M19 47C19 47 33.0068 42.2031 37.0655 38.2833C37.659 37.7109 38.13 37.0313 38.4516 36.2831C38.7732 35.535 38.9391 34.7329 38.9397 33.9229C38.9404 33.1128 38.7759 32.3106 38.4555 31.5619C38.1351 30.8133 37.6652 30.1329 37.0726 29.5597C36.4799 28.9864 35.7762 28.5315 35.0015 28.2209C34.2269 27.9104 33.3964 27.7502 32.5577 27.7495C31.7189 27.7489 30.8882 27.9078 30.113 28.2172C29.3379 28.5266 28.6334 28.9805 28.0398 29.5528C23.9669 33.4863 19 47 19 47ZM28.0398 36.4467L25.1306 33.6508L28.0398 36.4467ZM37.548 37.8173L34.0569 34.4457L37.548 37.8173Z" fill="url(#paint1_linear_1686_7148)"/>
<path d="M47 29.5939C47 29.5939 45.1126 26.8528 42.0331 26.8528C39.7057 26.8528 37.0661 29.5939 37.0661 29.5939C37.0661 29.5939 38.9536 32.335 42.0331 32.335C45.1126 32.335 47 29.5939 47 29.5939Z" fill="url(#paint2_linear_1686_7148)"/>
<path d="M37.0661 20C37.0661 20 34.2279 21.8228 34.2279 24.7969C34.2279 27.7711 37.0661 29.5939 37.0661 29.5939C37.0661 29.5939 39.9044 27.0721 39.9044 24.7969C39.9044 21.8228 37.0661 20 37.0661 20Z" fill="url(#paint3_linear_1686_7148)"/>
<path d="M28.0398 36.4467L25.1306 33.6508M37.548 37.8173L34.0569 34.4457M37.0661 29.5939C37.0661 29.5939 39.7057 26.8528 42.0331 26.8528C45.1126 26.8528 47 29.5939 47 29.5939C47 29.5939 45.1126 32.335 42.0331 32.335C38.9536 32.335 37.0661 29.5939 37.0661 29.5939ZM37.0661 29.5939C37.0661 29.5939 34.2279 27.7711 34.2279 24.7969C34.2279 21.8228 37.0661 20 37.0661 20C37.0661 20 39.9044 21.8228 39.9044 24.7969C39.9044 27.0721 37.0661 29.5939 37.0661 29.5939ZM65 33.5C65 51.1731 50.6731 65.5 33 65.5C15.3269 65.5 1 51.1731 1 33.5C1 15.8269 15.3269 1.5 33 1.5C50.6731 1.5 65 15.8269 65 33.5ZM19 47C19 47 33.0068 42.2031 37.0655 38.2833C37.659 37.7109 38.13 37.0313 38.4516 36.2831C38.7732 35.5349 38.9391 34.7329 38.9397 33.9229C38.9404 33.1128 38.7759 32.3106 38.4555 31.5619C38.1351 30.8133 37.6652 30.1329 37.0726 29.5597C36.4799 28.9864 35.7762 28.5315 35.0015 28.2209C34.2269 27.9104 33.3964 27.7502 32.5577 27.7495C31.7189 27.7489 30.8882 27.9078 30.113 28.2172C29.3379 28.5266 28.6334 28.9805 28.0398 29.5528C23.9669 33.4863 19 47 19 47Z" stroke="white" stroke-width="2" stroke-linecap="round" stroke-linejoin="round"/>
<defs>
<linearGradient id="paint0_linear_1686_7148" x1="2.4" y1="9.75" x2="0.828244" y2="57.6794" gradientUnits="userSpaceOnUse">
<stop stop-color="#78CD87"/>
<stop offset="1" stop-color="#4AAE98"/>
</linearGradient>
<linearGradient id="paint1_linear_1686_7148" x1="2.4" y1="9.75" x2="0.828244" y2="57.6794" gradientUnits="userSpaceOnUse">
<stop stop-color="#78CD87"/>
<stop offset="1" stop-color="#4AAE98"/>
</linearGradient>
<linearGradient id="paint2_linear_1686_7148" x1="2.4" y1="9.75" x2="0.828244" y2="57.6794" gradientUnits="userSpaceOnUse">
<stop stop-color="#78CD87"/>
<stop offset="1" stop-color="#4AAE98"/>
</linearGradient>
<linearGradient id="paint3_linear_1686_7148" x1="2.4" y1="9.75" x2="0.828244" y2="57.6794" gradientUnits="userSpaceOnUse">
<stop stop-color="#78CD87"/>
<stop offset="1" stop-color="#4AAE98"/>
</linearGradient>
</defs>
</svg>
